The Book of Eli 2010 1080p BluRay x264 DTS-WiKi   
http://thepiratebay.org/torrent/5572131/The_Book_of_Eli_2010_1080p_BluRay_x264_DTS-WiKi

The Book of Eli 2010 720p BluRay x264-WiKi  
http://thepiratebay.org/torrent/5568956/The_Book_of_Eli_2010_720p_BluRay_x264-WiKi

The Book of Eli (2010) DVDRip XviD-MAX 
 
Format                           : AVI 
Format/Info                      : Audio Video Interleave
Format profile                   : OpenDML 
File size                        : 1.26 GiB
Duration                         : 1h 57mn
Overall bit rate                 : 1 529 Kbps
Writing application              : VirtualDubMod 1.5.10.2 (build 2542/release)
Writing library                  : VirtualDubMod build 2542/release
Original source form             : MAX TORRENTZ
Copyright                        : SIGISMUNT

Video
ID                               : 0
Format                           : MPEG-4 Visual
Format profile                   : AdvancedSimple@L5
Format settings, BVOP            : Yes
Format settings, QPel            : No
Format settings, GMC             : No warppoints
Format settings, Matrix          : Custom
Codec ID                         : XVID
Codec ID/Hint                    : XviD
Duration                         : 1h 57mn
Bit rate                         : 1 393 Kbps
Width                            : 720 pixels
Height                           : 304 pixels
Display aspect ratio             : 2.35:1
Frame rate                       : 23.976 fps
Resolution                       : 24 bits
Colorimetry                      : 4:2:0
Scan type                        : Progressive
Bits/(Pixel*Frame)               : 0.265
Stream size                      : 1.14 GiB (91%)
Writing library                  : XviD 1.2.1 (UTC 2008-12-04)

Audio
ID                               : 1
Format                           : MPEG Audio
Format version                   : Version 1
Format profile                   : Layer 3
Codec ID                         : 55
Codec ID/Hint                    : MP3
Duration                         : 1h 57mn
Bit rate mode                    : Constant
Bit rate                         : 128 Kbps
Channel(s)                       : 2 channels
Sampling rate                    : 48.0 KHz
Resolution                       : 16 bits
Stream size                      : 108 MiB (8%)
Alignment                        : Aligned on interleaves
Interleave, duration             : 24 ms (0.58 video frame)
Interleave, preload duration     : 192 ms

Source: The Book of Eli 2010 720p BluRay x264-WiKi

Encode: Audio/Video 9/10 Movie: 7/10  
http://www.imdb.com/title/tt1037705/

Screens: 
http://www.postimg.com/image/15000/14706.jpg 
http://www.postimg.com/image/15000/14707.jpg 
http://www.postimg.com/image/15000/14708.jpg 
http://www.postimg.com/image/15000/14709.jpg 
http://www.postimg.com/image/15000/14710.jpg

ScreenCaps: 
http://www.postimg.com/image/15000/14711.jpg

The Book of Eli (2010) DVDRip XviD-MAX Torrent Free Download 
http://thepiratebay.org/user/extremezone/0/7 

How To Get Your Maxspeed (uTorrent)

Torrent Client - Preferences - Bandwidth - Number of connections - Set aprox. 500 for each 
Torrent Client - Preferences - BiTorrent - Protocol Encryption - Forced
Bandwidth Allocation - High (Set download/upload limit - Unlimited)
Stop Other Active Torrents - Start downloading and wait for connections
Enjoy and Seed for at least 1:1 ratio. Don't forget to say thanks/leave reviews.
Also please spread the link where you found this torrent to your friends.
Recommended player for all our movies VLC PLAYER.